<svg width="40" height="40" viewBox="0 0 40 40" fill="none" xmlns="http://www.w3.org/2000/svg">
<path d="M19.2934 10.3859C19.3606 12.4047 19.5418 30.0391 19.3372 31.2656C19.1528 32.3703 18.4465 34.3656 17.0981 34.575C15.7497 34.7844 14.8747 33.7703 14.47 33.6375C14.0653 33.5047 12.9465 34.1891 12.0622 33.5844C11.1778 32.9797 11.3715 31.3969 11.1247 31.1281C10.8778 30.8594 9.50903 31.1766 8.85278 30.2703C8.19653 29.3641 8.76684 28.3953 8.55903 28.1328C8.35122 27.8703 6.32934 27.6328 6.04341 25.5156C5.71841 23.0859 7.66684 22.6109 7.65591 22.2328C7.64497 21.8547 6.04028 19.7875 6.85278 17.2469C7.66528 14.7063 9.80278 14.4344 9.92778 14.2063C10.0528 13.9781 9.07466 12.5781 10.3622 10.5594C11.6497 8.54063 13.5075 9.08594 13.7715 8.90625C14.0356 8.72656 13.7262 7.93125 14.6215 6.80469C15.4481 5.76406 17.0293 5.50781 18.1715 6.16563C19.2075 6.76875 19.2262 8.36719 19.2934 10.3859Z" fill="#fdfdfdff"/>
<path d="M16.7277 35.8547C15.5433 35.8547 14.684 35.2656 14.1918 34.9281L14.1793 34.9203L14.1215 34.9328C13.5168 35.0719 12.3902 35.3297 11.3574 34.6203C10.4293 33.9859 10.1933 32.9391 10.0824 32.1953C9.42459 32.1109 8.48397 31.8906 7.8449 31.0078C7.4121 30.3974 7.21606 29.6505 7.29334 28.9062C5.10584 27.8406 4.89022 26.2891 4.80897 25.6844C4.53084 23.6406 5.46834 22.5234 6.15897 21.9266C5.69022 20.9078 4.97147 19.0297 5.66209 16.8672C5.87919 16.1406 6.24395 15.4666 6.73355 14.8875C7.22315 14.3083 7.82704 13.8365 8.5074 13.5016C8.36209 12.6656 8.35115 11.3875 9.3074 9.88749C10.4012 8.18281 11.8652 7.81874 12.784 7.73593C12.9412 7.11206 13.2341 6.53054 13.6418 6.03281C14.8371 4.52968 17.0996 4.11406 18.798 5.09531C20.4012 6.0125 20.4683 8.02499 20.5371 10.1562V10.3469C20.5871 11.8437 20.8058 30.0344 20.5652 31.4734C20.2637 33.2875 19.223 35.5125 17.284 35.8141C17.0999 35.8417 16.9139 35.8553 16.7277 35.8547ZM14.3496 32.3797C14.5164 32.3785 14.6823 32.4027 14.8418 32.4516C15.1158 32.5495 15.373 32.6892 15.6043 32.8656C16.073 33.1891 16.4449 33.4125 16.9074 33.3344C17.3308 33.2687 17.9246 32.1391 18.1058 31.0547C18.2808 29.7766 18.1199 12.6781 18.0449 10.4219V10.2297C18.0043 9.00468 17.9558 7.47968 17.5543 7.24843C16.9293 6.8875 16.0355 7.04062 15.6058 7.58125C15.3459 7.8854 15.1885 8.26374 15.1558 8.66249C15.1105 8.98437 15.0277 9.58281 14.459 9.95625C14.098 10.1937 13.7277 10.2 13.4012 10.2062C12.8012 10.2172 12.0543 10.2328 11.4168 11.2312C10.7402 12.2922 10.948 13.0266 11.0793 13.5125C11.1683 13.8328 11.3027 14.3172 11.0183 14.8219C10.7793 15.2453 10.4058 15.4 10.0808 15.5359C9.49334 15.7797 8.51834 16.1875 8.04959 17.6281C7.58084 19.1172 8.20584 20.4125 8.5824 21.1859C8.76834 21.5672 8.90272 21.8437 8.91209 22.1984C8.9324 22.9406 8.39647 23.3516 8.07615 23.6047C7.6074 23.9703 7.15115 24.3141 7.2949 25.3625C7.40897 26.2078 7.95428 26.4969 8.65584 26.7875C8.97772 26.9203 9.30897 27.0578 9.56209 27.3844C9.9574 27.8969 9.87459 28.4656 9.82772 28.8422C9.78084 29.2187 9.76522 29.3953 9.87928 29.5531C9.97459 29.6844 10.3902 29.7266 10.6605 29.7531C11.1027 29.7969 11.6543 29.8516 12.0668 30.3094C12.4043 30.6859 12.4652 31.1328 12.5355 31.6062C12.5668 31.8375 12.6496 32.45 12.784 32.5687C12.9121 32.6562 13.3105 32.5687 13.5746 32.5031C13.8275 32.4331 14.0875 32.3917 14.3496 32.3797Z" fill="#fdfdfdff"/>
<path d="M20.6703 9.97187C20.5656 12.0031 20.3765 29.725 20.5609 30.9609C20.7265 32.0734 21.0296 33.3203 22.6843 34.1234C23.9343 34.7297 25.1249 33.7437 25.5171 33.6156C25.9093 33.4875 26.8468 33.6578 27.7546 33.0641C28.6624 32.4703 29.0578 31.1422 29.3046 31.0031C29.5515 30.8641 30.7468 30.9844 31.4296 30.0828C32.1124 29.1812 31.5546 28.2406 31.6328 27.9469C31.7109 27.6531 33.4953 27.3062 33.8296 25.3797C34.2421 23.0094 32.3109 22.3703 32.2578 22.05C32.2046 21.7297 33.7078 20.6062 33.2406 18.3703C32.7296 15.9281 31.1484 15.6375 31.0281 15.3359C30.9078 15.0344 31.8343 14.2625 31.3531 12.8672C30.8718 11.4719 29.6343 11.5031 29.4531 11.2016C29.2718 10.9 29.714 10.1406 28.9562 9.20312C28.1671 8.22656 26.5656 8.72031 26.2999 8.57812C26.0343 8.43593 26.0406 7.46093 25.1234 6.48906C24.4046 5.72812 22.8374 5.33437 21.7968 6.21874C20.8734 6.99999 20.7812 7.94374 20.6703 9.97187Z" fill="#fdfdfdff"/>
<path d="M23.5221 35.5687C23.0415 35.5695 22.5672 35.4593 22.1361 35.2469C19.7627 34.0906 19.4658 32.1 19.3236 31.1437C19.1111 29.7234 19.3236 11.675 19.4205 9.90469C19.5205 7.96719 19.6002 6.4375 20.983 5.26094C22.5455 3.93594 24.8518 4.37969 26.0283 5.625C26.4917 6.1162 26.8538 6.69386 27.0939 7.325C27.8846 7.30469 29.0986 7.39375 29.9252 8.41875C30.397 8.98176 30.6597 9.69051 30.6689 10.425C31.1056 10.6125 31.4975 10.8906 31.8188 11.2407C32.1401 11.5908 32.3836 12.0051 32.533 12.4562C32.8154 13.2379 32.8116 14.0944 32.5221 14.8734C33.1846 15.3719 34.0846 16.2984 34.4611 18.1109C34.7392 19.3747 34.518 20.697 33.8439 21.8016C34.5268 22.4453 35.4064 23.625 35.058 25.5922C34.7674 27.2578 33.6893 28.1062 32.9814 28.5422C33.0476 28.9422 33.0322 29.3515 32.936 29.7454C32.8399 30.1394 32.6651 30.5098 32.4221 30.8344C31.6986 31.7906 30.6736 32.0281 30.0533 32.1266C29.7596 32.6734 29.2721 33.5578 28.4346 34.1062C27.5283 34.6984 26.6283 34.7594 26.0908 34.7953L25.8971 34.8094L25.7736 34.875C25.3471 35.1156 24.5158 35.5687 23.5221 35.5687ZM23.2236 6.95938C22.9968 6.95121 22.7748 7.02561 22.5986 7.16875C22.1189 7.575 22.0174 8.00469 21.9111 10.0359C21.8049 12.0672 21.6377 29.5312 21.7971 30.7812C21.9393 31.7391 22.1268 32.4625 23.2314 33C23.6096 33.1844 24.0658 32.9672 24.5799 32.6875C24.7547 32.5846 24.9389 32.4982 25.1299 32.4297C25.3888 32.3558 25.656 32.3149 25.9252 32.3078C26.3111 32.2812 26.7064 32.2547 27.0689 32.0203C27.3924 31.8094 27.6799 31.2719 27.8721 30.9172C28.0955 30.5016 28.2877 30.1359 28.6924 29.9156C28.9429 29.7888 29.2157 29.7119 29.4955 29.6891C29.9174 29.6297 30.2549 29.5656 30.433 29.3312C30.5533 29.175 30.5439 29.0187 30.4564 28.6109C30.3643 28.2894 30.354 27.9499 30.4268 27.6234C30.583 27.0375 31.0393 26.7812 31.4049 26.5766C32.0018 26.2406 32.4689 25.9234 32.6002 25.1703C32.783 24.1156 32.2877 23.7266 31.8033 23.3516C31.5143 23.1266 31.1189 22.8172 31.0221 22.2578C30.9252 21.6984 31.2174 21.2516 31.4502 20.9094C31.7861 20.4172 32.2471 19.7422 32.0143 18.6297C31.7393 17.3125 31.1268 16.9312 30.6814 16.6531C30.3971 16.4766 30.0439 16.2562 29.8643 15.7984C29.6236 15.1906 29.8783 14.6641 30.0299 14.3484C30.1955 14.0047 30.3268 13.7328 30.1689 13.2766C30.0299 12.8734 29.8064 12.7656 29.3877 12.5969C29.0752 12.4703 28.6439 12.2953 28.3736 11.8422C28.1845 11.4916 28.1096 11.0906 28.1596 10.6953C28.1768 10.3953 28.1846 10.2453 27.9799 9.99219C27.8236 9.79062 27.1986 9.825 26.8643 9.83594C26.4643 9.85781 26.083 9.87969 25.6986 9.66875C25.1752 9.38437 25.0033 8.9 24.8658 8.50937C24.7407 8.07707 24.5196 7.67861 24.2189 7.34375C23.9464 7.09744 23.5925 6.96055 23.2252 6.95938H23.2236Z" fill="#fdfdfdff"/>
<path d="M19.2934 10.3859C19.3606 12.4047 19.5418 30.0391 19.3372 31.2656C19.1528 32.3703 18.4465 34.3656 17.0981 34.575C15.7497 34.7844 14.8747 33.7703 14.47 33.6375C14.0653 33.5047 12.9465 34.1891 12.0622 33.5844C11.1778 32.9797 11.3715 31.3969 11.1247 31.1281C10.8778 30.8594 9.50903 31.1766 8.85278 30.2703C8.19653 29.3641 8.76684 28.3953 8.55903 28.1328C8.35122 27.8703 6.32934 27.6328 6.04341 25.5156C5.71841 23.0859 7.66684 22.6109 7.65591 22.2328C7.64497 21.8547 6.04028 19.7875 6.85278 17.2469C7.66528 14.7063 9.80278 14.4344 9.92778 14.2063C10.0528 13.9781 9.07466 12.5781 10.3622 10.5594C11.6497 8.54063 13.5075 9.08594 13.7715 8.90625C14.0356 8.72656 13.7262 7.93125 14.6215 6.80469C15.4481 5.76406 17.0293 5.50781 18.1715 6.16563C19.2075 6.76875 19.2262 8.36719 19.2934 10.3859Z" fill="white"/>
<path d="M20.6703 9.97187C20.5656 12.0031 20.3765 29.725 20.5609 30.9609C20.7265 32.0734 21.0296 33.3203 22.6843 34.1234C23.9343 34.7297 25.1249 33.7437 25.5171 33.6156C25.9093 33.4875 26.8468 33.6578 27.7546 33.0641C28.6624 32.4703 29.0578 31.1422 29.3046 31.0031C29.5515 30.8641 30.7468 30.9844 31.4296 30.0828C32.1124 29.1812 31.5546 28.2406 31.6328 27.9469C31.7109 27.6531 33.4953 27.3062 33.8296 25.3797C34.2421 23.0094 32.3109 22.3703 32.2578 22.05C32.2046 21.7297 33.7078 20.6062 33.2406 18.3703C32.7296 15.9281 31.1484 15.6375 31.0281 15.3359C30.9078 15.0344 31.8343 14.2625 31.3531 12.8672C30.8718 11.4719 29.6343 11.5031 29.4531 11.2016C29.2718 10.9 29.714 10.1406 28.9562 9.20312C28.1671 8.22656 26.5656 8.72031 26.2999 8.57812C26.0343 8.43593 26.0406 7.46093 25.1234 6.48906C24.4046 5.72812 22.8374 5.33437 21.7968 6.21874C20.8734 6.99999 20.7812 7.94374 20.6703 9.97187Z" fill="white"/>
<path d="M23.7751 11.875C23.072 11.3828 15.6861 18.8812 15.9236 19.4953C16.1611 20.1094 18.5689 20.0734 18.8923 20.4469C19.2158 20.8203 16.2767 27.3953 16.822 27.8219C17.2314 28.1344 24.6079 20.9109 24.4986 20.2625C24.3892 19.6141 22.4111 19.7359 21.9783 19.325C21.5454 18.9141 24.2783 12.2297 23.7751 11.875Z" fill="#E83A2A"/>
<path d="M1.74236 22.9953C2.08143 22.9953 4.16268 22.4406 4.5033 22.2313C4.84393 22.0219 4.4408 20.8391 4.17986 20.7859C3.91893 20.7328 1.71893 21.3688 1.41893 21.55C1.11893 21.7313 1.40643 23 1.74236 22.9953Z" fill="#fdfdfdff"/>
<path d="M1.30656 15.3031C1.04094 15.0313 1.39719 13.9844 1.80187 13.9797C2.20656 13.975 4.13781 14.6188 4.37531 14.8438C4.61281 15.0688 4.33312 16.1203 3.88 16.1672C3.42687 16.2141 1.59875 15.6016 1.30656 15.3031Z" fill="#fdfdfdff"/>
<path d="M5.39078 10.5031C5.22047 10.1625 5.88141 9.27655 6.26735 9.3953C6.65328 9.51405 7.50016 10.1562 7.64078 10.4391C7.78141 10.7219 7.20953 11.6406 6.76422 11.5469C6.31891 11.4531 5.57828 10.875 5.39078 10.5031Z" fill="#fdfdfdff"/>
<path d="M3.7504 30.7047C3.37072 30.6859 2.92072 29.6766 3.2129 29.3969C3.50509 29.1172 4.4629 28.6984 4.79572 28.7094C5.12853 28.7203 5.63322 29.6734 5.33322 30.0172C5.03322 30.3609 4.16134 30.7234 3.7504 30.7047Z" fill="#fdfdfdff"/>
<path d="M37.7684 16.3109C37.5121 16.2844 36.084 16.6031 35.8121 16.7797C35.5403 16.9563 35.9496 18.1328 36.1418 18.2078C36.334 18.2828 37.8606 17.8953 38.0981 17.7391C38.3356 17.5828 38.0246 16.3375 37.7684 16.3109Z" fill="#fdfdfdff"/>
<path d="M34.3535 13.8203C33.9738 13.8063 33.5128 12.8016 33.8035 12.5188C34.0941 12.2359 35.9378 11.375 36.2628 11.3844C36.5878 11.3938 37.1332 12.2953 36.8363 12.6344C36.5394 12.9734 34.7707 13.8344 34.3535 13.8203Z" fill="#fdfdfdff"/>
<path d="M39.0625 22.1875C39.3844 22.3891 39.2829 23.4906 38.8907 23.5938C38.4985 23.6969 36.4704 23.5203 36.1922 23.35C35.9141 23.1797 35.9344 22.1 36.3641 21.9438C36.7938 21.7875 38.7094 21.9641 39.0625 22.1875Z" fill="#fdfdfdff"/>
<path d="M37.2061 27.7547C37.4748 28.0234 37.1248 29.0734 36.7201 29.0812C36.3154 29.0891 35.3889 28.7406 35.1576 28.5125C34.9264 28.2844 35.1904 27.2359 35.6436 27.1859C36.0967 27.1359 36.9108 27.4594 37.2061 27.7547Z" fill="#fdfdfdff"/>
</svg>
